<svg width="682" height="674" viewBox="0 0 682 674" fill="none" xmlns="http://www.w3.org/2000/svg">
<path d="M236.772 460.722C181.981 329.274 244.124 178.296 375.572 123.505C507.021 68.7131 657.999 130.856 712.79 262.305L811.999 500.314L335.981 698.731L236.772 460.722Z" fill="#0970F1"/>
<path d="M822.121 524.602C876.913 656.051 814.77 807.028 683.321 861.82C551.872 916.611 400.895 854.468 346.103 723.019L822.121 524.602Z" fill="#0970F1"/>
<rect x="322.292" y="307.534" width="34.4687" height="68.9375" rx="17.2344" transform="rotate(-22.6277 322.292 307.534)" fill="#FAFAFA"/>
<rect x="513.183" y="227.966" width="34.4687" height="68.9375" rx="17.2344" transform="rotate(-22.6277 513.183 227.966)" fill="#FAFAFA"/>
<rect x="292.897" y="636.432" width="36.8368" height="184.184" rx="18.4184" transform="rotate(123.501 292.897 636.432)" fill="#81B5F5"/>
</svg>
