<svg width="1440" height="961" viewBox="0 0 1440 961" fill="none" xmlns="http://www.w3.org/2000/svg">
<g clip-path="url(#clip0_2_243)">
<path d="M154.314 402.725L133.298 393.503C118.736 387.115 102.877 384.232 86.9976 385.089C71.1184 385.945 55.6617 390.516 41.8707 398.434L-126.354 495.559C-139.822 503.382 -151.315 514.192 -159.946 527.158C-168.577 540.123 -174.116 554.897 -176.136 570.341L-179.141 593.491C-181.517 612.395 -176.733 631.504 -165.73 647.059C-154.727 662.614 -138.302 673.489 -119.686 677.545L66.3447 723.814C82.2429 727.114 98.7997 724.435 112.845 716.289C127.189 707.97 137.959 694.652 143.093 678.885L195.87 496.217C201.87 478.259 200.932 458.705 193.242 441.403C185.552 424.102 171.665 410.304 154.314 402.725V402.725ZM119.347 425.047L140.389 434.313C142.521 435.274 144.567 436.414 146.505 437.721L74.857 479.087C69.6399 472.551 63.7208 466.607 57.2062 461.363L33.8207 442.961L59.1389 428.343C68.2179 423.124 78.3944 420.108 88.851 419.535C99.3075 418.962 109.753 420.85 119.347 425.047ZM79.1334 657.829L-16.4116 587.971C-20.199 584.87 -23.6945 581.428 -26.854 577.689L62.156 526.299C63.4271 529.949 64.4147 533.692 65.1102 537.494L79.1334 657.829ZM-42.5519 546.873C-43.4745 543.831 -44.2156 540.737 -44.7715 537.607L-51.3909 492.158L1.60838 461.559L35.8505 488.507C38.928 490.996 41.8232 493.703 44.514 496.606L-42.5519 546.873ZM-141.894 574.738C-140.559 564.563 -136.907 554.83 -131.22 546.288C-125.532 537.746 -117.959 530.623 -109.086 525.468L-83.663 510.79L-78.9487 542.544C-77.871 550.102 -76.0331 557.531 -73.4632 564.72L-145.066 606.06C-145.261 603.354 -145.18 600.635 -144.826 597.945L-141.894 574.738ZM-111.96 643.853C-117.904 642.567 -123.488 639.974 -128.306 636.263L-56.9428 595.061C-51.2992 602.545 -44.7889 609.335 -37.548 615.288L59.9868 686.589L-111.96 643.853ZM113.763 656.299L99.3376 532.748C97.9067 524.548 95.5783 516.531 92.3943 508.841L164.64 467.13C165.487 473.486 164.908 479.95 162.945 486.054L113.763 656.299Z" fill="#E7E7E7" fill-opacity="0.2"/>
<path d="M7.60181 376.344C9.87995 376.212 12.1094 375.63 14.1613 374.632C16.2133 373.633 18.0469 372.238 19.5564 370.527C21.0658 368.815 22.2211 366.822 22.9554 364.661C23.6897 362.501 23.9885 360.216 23.8346 357.939L21.5212 319.396C21.2446 314.822 19.1626 310.546 15.7332 307.508C12.3038 304.47 7.80791 302.918 3.23454 303.195C-1.33883 303.471 -5.61503 305.553 -8.65334 308.983C-11.6916 312.412 -13.2432 316.908 -12.9666 321.481L-10.6532 360.025C-10.532 362.297 -9.96302 364.523 -8.97882 366.574C-7.99462 368.626 -6.61465 370.463 -4.91824 371.979C-3.22183 373.496 -1.24244 374.662 0.906179 375.411C3.0548 376.16 5.33028 376.477 7.60181 376.344V376.344Z" fill="#E7E7E7" fill-opacity="0.2"/>
</g>
<g clip-path="url(#clip1_2_243)">
<path d="M437.606 913.568C381.606 898.563 333.591 937.829 294.318 1030.19C194.707 1018.01 136.7 1039.94 121.674 1095.97C106.648 1152 145.935 1199.99 238.298 1239.26C226.12 1338.87 248.054 1396.89 304.077 1411.9C314.723 1414.96 325.882 1415.81 336.869 1414.4C347.855 1412.98 358.435 1409.33 367.958 1403.67C397.434 1386.66 423.943 1350.37 447.374 1295.29C506.776 1302.55 551.451 1297.73 580.942 1280.71C590.604 1275.29 599.054 1267.95 605.773 1259.14C612.491 1250.34 617.336 1240.25 620.009 1229.5C635.02 1173.48 595.822 1125.44 503.384 1086.21C515.554 986.586 493.629 928.579 437.606 913.568V913.568ZM390.696 952.435C396.312 948.964 402.578 946.676 409.109 945.714C415.641 944.751 422.3 945.133 428.679 946.837C469.873 957.887 476.19 1013.38 470.023 1073.29C448.96 1065.75 425.976 1058.54 400.586 1051.73C375.196 1044.91 351.642 1039.69 329.623 1035.67C346.152 998.75 366.574 966.362 390.696 952.435V952.435ZM465.22 1108.25C460.634 1135.22 454.469 1161.53 448.609 1183.64C442.749 1205.74 434.846 1231.46 425.331 1257.11C398.357 1252.53 372.047 1246.36 350.058 1240.53C328.069 1234.71 302.115 1226.74 276.463 1217.22C281.048 1190.25 287.204 1163.93 293.117 1141.91C299.029 1119.89 306.836 1094.01 316.343 1068.34C343.308 1072.91 369.636 1079.11 391.742 1084.97C413.849 1090.83 439.567 1098.73 465.22 1108.25ZM154.958 1104.89C156.663 1098.51 159.657 1092.55 163.756 1087.37C167.855 1082.19 172.971 1077.91 178.789 1074.78C202.911 1060.85 241.171 1059.36 281.409 1063.51C273.878 1084.58 266.655 1107.58 259.833 1132.99C253.011 1158.4 247.756 1181.84 243.774 1203.92C188.822 1179.29 143.892 1146.09 154.958 1104.89V1104.89ZM312.961 1378.56C271.775 1367.52 265.449 1312.02 271.61 1252.13C292.688 1259.66 315.672 1266.87 341.062 1273.68C366.452 1280.5 389.934 1285.81 411.959 1289.8C387.377 1344.79 354.169 1389.7 312.995 1378.62L312.961 1378.56ZM586.631 1220.56C575.593 1261.7 520.14 1268.06 460.262 1261.91C467.772 1240.87 474.952 1217.8 481.755 1192.45C488.559 1167.11 493.832 1143.61 497.799 1121.54C552.861 1146.18 597.791 1179.38 586.725 1220.58L586.631 1220.56Z" fill="#E7E7E7" fill-opacity="0.2"/>
</g>
<g clip-path="url(#clip2_2_243)">
<path d="M653.111 140.605L603.656 169.158L467.298 79.6542C459.352 74.808 450.248 72.1918 440.942 72.0806C431.636 71.9694 422.471 74.3673 414.412 79.0222L411.691 80.5936C405.582 84.109 400.376 88.9977 396.484 94.8729C392.591 100.748 390.12 107.448 389.264 114.444C388.409 121.439 389.194 128.538 391.556 135.178C393.918 141.818 397.793 147.817 402.874 152.7L489.029 235.338L453.377 255.921C447.49 259.341 440.983 261.559 434.234 262.447C427.484 263.336 420.625 262.877 414.054 261.098L380.594 252.082C372.054 249.798 363.008 250.294 354.769 253.499C346.53 256.703 339.526 262.449 334.773 269.903C331.822 274.497 329.842 279.647 328.955 285.036C328.067 290.424 328.292 295.937 329.613 301.235C330.989 306.945 333.503 312.318 337.006 317.032C340.509 321.746 344.928 325.704 349.998 328.668L398.526 356.979C411.68 364.63 426.619 368.678 441.836 368.714C457.054 368.75 472.012 364.773 485.202 357.184L540.698 325.143L554.15 406.048C555.351 413.286 558.288 420.124 562.71 425.978C567.132 431.832 572.907 436.528 579.54 439.662C586.173 442.796 593.467 444.276 600.798 443.975C608.128 443.674 615.276 441.601 621.63 437.934C629.575 433.403 636.164 426.831 640.717 418.898C645.269 410.966 647.619 401.961 647.523 392.815L652.036 260.863L704.915 230.333C716.814 223.463 725.496 212.148 729.052 198.877C732.608 185.605 730.747 171.465 723.877 159.566C717.007 147.668 705.692 138.985 692.421 135.429C679.15 131.873 665.01 133.735 653.111 140.605ZM426.862 127.765C425.646 126.596 424.718 125.161 424.153 123.572C423.587 121.983 423.398 120.285 423.602 118.611C423.805 116.936 424.395 115.332 425.325 113.925C426.254 112.518 427.498 111.347 428.959 110.503L431.68 108.931C434.275 107.404 437.227 106.589 440.238 106.57C443.249 106.551 446.212 107.328 448.826 108.823L570.187 188.481L520.164 217.362L426.862 127.765ZM687.647 200.423L626.468 235.745C623.931 237.212 621.809 239.3 620.302 241.813C618.795 244.327 617.952 247.182 617.853 250.111L612.994 392.652C613.068 395.754 612.306 398.818 610.787 401.523C609.268 404.228 607.049 406.474 604.362 408.024C602.842 408.903 601.132 409.4 599.378 409.473C597.624 409.545 595.879 409.191 594.293 408.44C592.706 407.689 591.325 406.564 590.269 405.162C589.213 403.76 588.513 402.122 588.23 400.39L570.663 294.882C570.202 292.132 569.082 289.534 567.398 287.311C565.715 285.088 563.518 283.305 560.995 282.116C558.472 280.927 555.699 280.367 552.913 280.483C550.126 280.599 547.41 281.389 544.995 282.784L467.934 327.275C460.028 331.822 451.063 334.201 441.943 334.172C432.824 334.144 423.873 331.708 415.997 327.112L367.385 298.829C366.358 298.22 365.462 297.414 364.749 296.457C364.035 295.5 363.519 294.411 363.229 293.253C362.996 292.504 362.924 291.714 363.017 290.935C363.111 290.157 363.367 289.406 363.77 288.733C364.409 287.712 365.284 286.858 366.32 286.244C367.932 285.328 369.835 285.073 371.631 285.53L405.056 294.487C416.018 297.453 427.459 298.215 438.718 296.73C449.976 295.244 460.828 291.539 470.645 285.831L670.379 170.514C674.345 168.224 679.059 167.604 683.482 168.789C687.906 169.974 691.678 172.868 693.968 176.835C696.258 180.801 696.878 185.514 695.693 189.938C694.508 194.362 691.613 198.133 687.647 200.423Z" fill="#E7E7E7" fill-opacity="0.2"/>
</g>
<g clip-path="url(#clip3_2_243)">
<path d="M904.88 645.754L695.515 766.631C675.705 778.1 661.253 796.958 655.328 819.069C649.404 841.179 652.491 864.737 663.912 884.575L784.789 1093.94C796.258 1113.75 815.116 1128.2 837.227 1134.13C859.337 1140.05 882.895 1136.96 902.733 1125.54L1112.1 1004.67C1131.91 993.197 1146.36 974.338 1152.28 952.228C1158.21 930.117 1155.12 906.56 1143.7 886.722L1022.82 677.357C1011.35 657.547 992.497 643.095 970.386 637.17C948.275 631.246 924.718 634.333 904.88 645.754V645.754ZM712.783 796.54L922.148 675.663C934.047 668.794 948.187 666.932 961.458 670.488C974.73 674.044 986.045 682.727 992.914 694.625L1113.79 903.99C1117.61 910.667 1119.87 918.122 1120.4 925.797L904.256 867.882C893.303 864.945 881.878 864.195 870.635 865.675C859.391 867.154 848.549 870.834 838.728 876.504C828.907 882.174 820.3 889.724 813.397 898.721C806.494 907.718 801.431 917.987 798.497 928.942L776.588 1010.66L693.822 867.307C686.952 855.408 685.09 841.268 688.646 827.996C692.202 814.725 700.885 803.41 712.783 796.54V796.54ZM885.465 1095.63C873.566 1102.5 859.426 1104.36 846.154 1100.81C832.883 1097.25 821.568 1088.57 814.698 1076.67L801.005 1052.95L831.837 937.888C833.596 931.313 836.634 925.15 840.776 919.75C844.918 914.35 850.084 909.819 855.978 906.416C861.872 903.013 868.379 900.805 875.127 899.917C881.874 899.03 888.731 899.481 895.304 901.245L1111.46 959.175C1107.16 965.557 1101.48 970.884 1094.83 974.756L885.465 1095.63Z" fill="#E7E7E7" fill-opacity="0.2"/>
<path d="M950.673 828.674C961.025 822.697 969.372 813.785 974.659 803.064C979.946 792.343 981.935 780.295 980.375 768.444C978.815 756.592 973.775 745.47 965.894 736.483C958.012 727.495 947.643 721.047 936.096 717.953C924.55 714.86 912.346 715.259 901.026 719.101C889.707 722.944 879.782 730.056 872.505 739.54C865.228 749.023 860.927 760.452 860.145 772.38C859.363 784.308 862.136 796.2 868.113 806.552C876.127 820.433 889.328 830.563 904.811 834.711C920.294 838.86 936.791 836.688 950.673 828.674V828.674ZM907.503 753.9C911.939 751.339 917.036 750.151 922.148 750.486C927.26 750.821 932.158 752.664 936.222 755.783C940.286 758.901 943.335 763.155 944.981 768.006C946.628 772.858 946.799 778.088 945.473 783.036C944.147 787.985 941.384 792.429 937.532 795.807C933.681 799.185 928.914 801.344 923.835 802.013C918.756 802.682 913.592 801.829 908.998 799.563C904.403 797.298 900.583 793.72 898.022 789.284C894.587 783.334 893.656 776.264 895.434 769.628C897.212 762.993 901.553 757.335 907.503 753.9V753.9Z" fill="#E7E7E7" fill-opacity="0.2"/>
</g>
<g clip-path="url(#clip4_2_243)">
<path d="M1108.37 -201.986L1038.4 -161.587C1029.99 -162.394 1021.5 -161.63 1013.36 -159.334L1010.01 -165.136L1048.54 -220.32C1049.93 -222.91 1050.63 -225.813 1050.59 -228.752C1050.54 -231.692 1049.74 -234.571 1048.27 -237.117C1046.8 -239.663 1044.71 -241.791 1042.19 -243.301C1039.66 -244.81 1036.8 -245.651 1033.86 -245.743L973.053 -240.546C968.309 -240.134 963.745 -238.531 959.786 -235.885C955.827 -233.238 952.6 -229.635 950.406 -225.408C948.212 -221.182 947.121 -216.469 947.234 -211.708C947.348 -206.948 948.663 -202.293 951.056 -198.176L983.451 -142.066C977.398 -136.174 972.495 -129.205 968.995 -121.517L899.007 -81.1092C879.197 -69.6402 864.745 -50.7821 858.821 -28.6716C852.896 -6.56097 855.983 16.9968 867.405 36.8343L953.745 186.381C960.615 198.279 971.93 206.962 985.201 210.518C998.472 214.074 1012.61 212.212 1024.51 205.342L1293.69 49.9292C1305.59 43.0595 1314.28 31.7445 1317.83 18.4733C1321.39 5.20206 1319.53 -8.93823 1312.66 -20.8369L1226.32 -170.383C1214.85 -190.193 1195.99 -204.646 1173.88 -210.57C1151.77 -216.495 1128.21 -213.408 1108.37 -201.986V-201.986ZM1185.02 -166.481L1152.73 -147.84C1140.82 -141.005 1126.7 -139.147 1113.43 -142.672L1086.97 -149.749L1125.64 -172.077C1134.91 -177.377 1145.59 -179.684 1156.22 -178.682C1166.85 -177.68 1176.91 -173.419 1185.02 -166.481V-166.481ZM916.276 -51.2L954.948 -73.5276L947.848 -47.0761C944.265 -33.8199 935.593 -22.5143 923.719 -15.6181L891.431 3.02285C889.481 -7.47367 890.82 -18.3166 895.267 -28.0226C899.715 -37.7286 907.052 -45.8235 916.276 -51.2V-51.2ZM1156.79 89.0925L1126.88 106.361L1100.98 61.4967C1098.69 57.5305 1098.07 52.817 1099.25 48.3933C1100.44 43.9696 1103.33 40.1979 1107.3 37.908C1111.26 35.6181 1115.98 34.9975 1120.4 36.1829C1124.83 37.3682 1128.6 40.2623 1130.89 44.2286L1156.79 89.0925ZM1276.43 20.02L1186.7 71.8243L1160.8 26.9604C1153.93 15.0618 1142.61 6.37943 1129.34 2.82342C1116.07 -0.732597 1101.93 1.12902 1090.03 7.99871C1078.13 14.8684 1069.45 26.1834 1065.89 39.4547C1062.34 52.7259 1064.2 66.8662 1071.07 78.7648L1096.97 123.629L1007.24 175.433C1003.28 177.723 998.564 178.344 994.14 177.158C989.716 175.973 985.944 173.079 983.655 169.113L905.948 34.5208L940.987 14.2912C950.823 8.64431 959.442 1.10298 966.345 -7.89651C973.248 -16.896 978.298 -27.175 981.202 -38.1388L998.327 -102.002C1000.7 -110.847 1006.49 -118.389 1014.42 -122.968C1022.35 -127.547 1031.77 -128.788 1040.62 -126.419L1104.49 -109.318C1115.44 -106.352 1126.86 -105.585 1138.11 -107.064C1149.35 -108.542 1160.19 -112.236 1170 -117.931L1205.04 -138.161L1282.75 -3.56875C1285.04 0.397467 1285.66 5.1109 1284.47 9.53464C1283.29 13.9584 1280.39 17.7301 1276.43 20.02ZM1006.62 36.2144C1008.91 40.1806 1009.53 44.894 1008.35 49.3178C1007.16 53.7415 1004.27 57.5132 1000.3 59.8031L985.348 68.4372C981.382 70.7271 976.668 71.3476 972.245 70.1623C967.821 68.9769 964.049 66.0828 961.759 62.1166C959.47 58.1504 958.849 53.4369 960.034 49.0132C961.22 44.5895 964.114 40.8178 968.08 38.5279L983.035 29.8938C987.001 27.6039 991.714 26.9834 996.138 28.1687C1000.56 29.3541 1004.33 32.2482 1006.62 36.2144ZM1041.16 96.033C1043.45 99.9992 1044.07 104.713 1042.88 109.136C1041.7 113.56 1038.81 117.332 1034.84 119.622L1019.88 128.256C1015.92 130.546 1011.2 131.166 1006.78 129.981C1002.36 128.795 998.586 125.901 996.296 121.935C994.006 117.969 993.385 113.255 994.571 108.832C995.756 104.408 998.65 100.636 1002.62 98.3464L1017.57 89.7124C1021.54 87.4225 1026.25 86.8019 1030.67 87.9873C1035.1 89.1726 1038.87 92.0667 1041.16 96.033ZM1201.03 -76.0285C1203.32 -72.0622 1203.94 -67.3488 1202.76 -62.9251C1201.57 -58.5013 1198.68 -54.7297 1194.71 -52.4398L1179.76 -43.8057C1175.79 -41.5158 1171.08 -40.8953 1166.66 -42.0806C1162.23 -43.2659 1158.46 -46.16 1156.17 -50.1263C1153.88 -54.0925 1153.26 -58.8059 1154.44 -63.2296C1155.63 -67.6534 1158.52 -71.4251 1162.49 -73.715L1177.44 -82.349C1181.41 -84.6389 1186.12 -85.2595 1190.55 -84.0741C1194.97 -82.8888 1198.74 -79.9947 1201.03 -76.0285ZM1235.57 -16.2099C1237.86 -12.2437 1238.48 -7.53025 1237.3 -3.10651C1236.11 1.31723 1233.22 5.08891 1229.25 7.37881L1214.29 16.0129C1210.33 18.3028 1205.62 18.9233 1201.19 17.738C1196.77 16.5526 1193 13.6585 1190.71 9.6923C1188.42 5.72608 1187.8 1.01265 1188.98 -3.41109C1190.17 -7.83483 1193.06 -11.6065 1197.03 -13.8964L1211.98 -22.5305C1215.95 -24.8204 1220.66 -25.4409 1225.08 -24.2556C1229.51 -23.0702 1233.28 -20.1761 1235.57 -16.2099ZM1085.4 -69.088C1088.82 -63.1725 1090.4 -56.3771 1089.96 -49.5611C1089.51 -42.7451 1087.05 -36.2146 1082.89 -30.7955C1078.74 -25.3764 1073.06 -21.3121 1066.6 -19.1164C1060.13 -16.9208 1053.15 -16.6925 1046.56 -18.4604C1039.96 -20.2283 1034.03 -23.913 1029.53 -29.0485C1025.02 -34.1841 1022.15 -40.5398 1021.25 -47.312C1020.36 -54.0842 1021.5 -60.9686 1024.52 -67.0949C1027.54 -73.2211 1032.31 -78.3138 1038.23 -81.7291C1046.16 -86.3089 1055.59 -87.55 1064.43 -85.1793C1073.28 -82.8086 1080.82 -77.0204 1085.4 -69.088Z" fill="#E7E7E7" fill-opacity="0.2"/>
</g>
<g clip-path="url(#clip5_2_243)">
<path d="M1394.68 362.973L1245.13 449.313C1225.32 460.782 1210.87 479.641 1204.94 501.751C1199.02 523.862 1202.1 547.419 1213.53 567.257L1334.4 776.622C1345.87 796.432 1364.73 810.884 1386.84 816.809C1408.95 822.733 1432.51 819.646 1452.35 808.225L1601.89 721.884C1621.7 710.415 1636.16 691.557 1642.08 669.446C1648 647.336 1644.92 623.778 1633.5 603.941L1512.62 394.576C1501.15 374.766 1482.29 360.313 1460.18 354.389C1438.07 348.464 1414.51 351.551 1394.68 362.973V362.973ZM1262.4 479.223L1411.94 392.882C1423.84 386.012 1437.98 384.151 1451.25 387.707C1464.53 391.263 1475.84 399.945 1482.71 411.844L1586.32 591.299L1347.04 729.445L1243.44 549.989C1236.57 538.09 1234.7 523.95 1238.26 510.679C1241.82 497.407 1250.5 486.092 1262.4 479.223V479.223ZM1584.62 691.975L1435.08 778.316C1423.18 785.185 1409.04 787.047 1395.77 783.491C1382.5 779.935 1371.18 771.252 1364.31 759.354L1468.99 698.915L1477.63 713.87C1479.92 717.836 1483.69 720.73 1488.11 721.916C1492.54 723.101 1497.25 722.48 1501.22 720.191C1505.18 717.901 1508.08 714.129 1509.26 709.705C1510.45 705.282 1509.83 700.568 1507.54 696.602L1498.9 681.647L1603.59 621.209C1610.46 633.107 1612.32 647.248 1608.76 660.519C1605.21 673.79 1596.52 685.105 1584.62 691.975Z" fill="#E7E7E7" fill-opacity="0.2"/>
</g>
<defs>
<clipPath id="clip0_2_243">
<rect width="414.435" height="414.435" fill="white" transform="translate(-273.612 460.941) rotate(-30)"/>
</clipPath>
<clipPath id="clip1_2_243">
<rect width="414.435" height="414.435" fill="white" transform="translate(87.7751 1086.88) rotate(-30)"/>
</clipPath>
<clipPath id="clip2_2_243">
<rect width="414.435" height="414.435" fill="white" transform="translate(252.724 172.374) rotate(-30)"/>
</clipPath>
<clipPath id="clip3_2_243">
<rect width="414.435" height="414.435" fill="white" transform="translate(620.742 809.801) rotate(-30)"/>
</clipPath>
<clipPath id="clip4_2_243">
<rect width="414.435" height="414.435" fill="white" transform="translate(772.426 -127.674) rotate(-30)"/>
</clipPath>
<clipPath id="clip5_2_243">
<rect width="414.435" height="414.435" fill="white" transform="translate(1140.44 509.753) rotate(-30)"/>
</clipPath>
</defs>
</svg>
