<svg width="166" height="62" viewBox="0 0 166 62" fill="none" xmlns="http://www.w3.org/2000/svg">
<path fill-rule="evenodd" clip-rule="evenodd" d="M166 0H0V62H166V0ZM117.491 44.096V49.528H104.555V44.096H106.907L102.539 39.112H98.7871V44.096H101.083V49.528H88.2031V44.096H91.5631V16.488H87.9231V11H98.7871V34.016H102.987L106.683 29.76H103.659V24.272H116.315V29.76H113.571L108.139 35.92L115.307 44.096H117.491ZM41.888 40.456L47.936 41.576C47.6 46.056 43.456 50.088 36.176 50.088C31.472 50.088 27.552 48.408 25.312 45.048C23.52 47.68 20.384 50.088 15.68 50.088C11.424 50.088 7 48.128 7 42.864C7 36.648 13.272 35.192 19.04 35.192C20.44 35.192 21.896 35.304 23.184 35.416V34.576C23.184 32 23.128 28.92 19.04 28.92C17.528 28.92 16.352 29.032 15.176 29.648L14.224 33.232L8.456 32.616L9.576 26.064C14 24.272 16.24 23.768 20.384 23.768C23.352 23.768 26.04 24.664 27.888 26.344C29.96 24.72 32.592 23.768 35.84 23.768C42.896 23.768 47.656 28.304 47.712 34.856C47.712 35.976 47.6 37.152 47.32 38.384H31.024C31.416 42.304 33.096 44.096 36.736 44.096C40.6 44.096 41.608 41.968 41.888 40.456ZM31.08 34.576H40.208C40.768 31.888 39.424 29.2 35.84 29.2C32.76 29.2 31.416 31.216 31.08 34.576ZM19.544 38.552C16.968 38.552 14.728 39.28 14.728 42.024C14.728 43.648 15.512 44.936 17.696 44.936C20.216 44.936 23.184 43.088 23.184 39.056V38.888C22.008 38.72 20.72 38.552 19.544 38.552ZM59.8885 33.344H52.3845V24.272H59.8885V33.344ZM59.8885 49.528H52.3845V40.456H59.8885V49.528ZM80.5551 23.936C77.1391 23.936 75.4591 26.176 74.6191 29.088V24.272H64.3151V29.76H67.9551V44.096H64.5951V49.528H79.6591V44.096H75.1791V33.568C75.1791 31.104 76.6351 29.816 78.2591 29.816C78.9311 29.816 79.4911 30.04 80.2191 30.488L81.1711 34.8L86.6591 34.184L85.5391 25.336C83.8031 24.328 81.9551 23.936 80.5551 23.936ZM142.62 41.8C142.62 35.9636 137.336 34.9491 133.098 34.1353C130.261 33.5905 127.892 33.1357 127.892 31.384C127.892 29.704 129.404 28.976 131.252 28.976C132.428 28.976 133.884 29.144 135.228 29.592L135.676 33.12L141.276 32.504L140.66 26.064C137.524 24.44 134.556 23.768 131.196 23.768C126.044 23.768 120.108 25.392 120.108 31.608C120.108 37.6616 125.663 38.6706 130.064 39.4698C132.951 39.994 135.34 40.4281 135.34 42.136C135.34 43.928 132.988 44.824 130.244 44.824C129.46 44.824 127.78 44.768 126.436 44.32V41.184L120.836 40.568L119.828 47.624C123.188 49.36 126.996 50.088 130.636 50.088C137.692 50.088 142.62 47.4 142.62 41.8ZM158.915 44.096V49.528H144.971V44.096H148.331V16.488H144.691V11H155.555V44.096H158.915Z" fill="#141414"/>
</svg>
